<svg width="13" height="18" viewBox="0 0 13 18" fill="none" xmlns="http://www.w3.org/2000/svg">
<path d="M12.1645 0.250702H1.00014C0.769564 0.250702 0.582398 0.437705 0.582398 0.668439V16.3139C0.582072 16.6273 0.757162 16.9145 1.03587 17.0578C1.31474 17.2009 1.65024 17.1759 1.90464 16.993L6.58232 13.6398L11.2602 16.9928C11.5147 17.1754 11.8499 17.2002 12.1286 17.0571C12.4071 16.914 12.5824 16.627 12.5824 16.3139V0.668439C12.5824 0.437705 12.3952 0.250702 12.1645 0.250702ZM11.7468 16.3137L6.82594 12.7863C6.68039 12.682 6.48457 12.682 6.33918 12.7863L1.4182 16.3139V1.08618H11.7468V16.3137Z" fill="white"/>
</svg>
